{"title":"Pirates.Of.The.Caribbean.Dead.Mans.Chest.2006.DVDRip.XviD[ENG]-N","uid":5534677,"size":732098355,"categoryP":"video","categoryS":"movies","magnet":"?xt=urn:btih:bc9465557761b3f28d59fad3bab25d8a95dc44cd&amp;dn=Pirates.Of.The.Caribbean.Dead.Mans.Chest.2006.DVDRip.XviD%5BENG%5D-N&amp;tr=udp%3A%2F%2Ftracker.openbittorrent.com%3A80&amp;tr=udp%3A%2F%2Fopen.demonii.com%3A1337&amp;tr=udp%3A%2F%2Ftracker.coppersurfer.tk%3A6969&amp;tr=udp%3A%2F%2Fexodus.desync.com%3A6969","seeders":1,"leechers":0,"uploader":"quanta9","files":3,"time":1273030392,"description":"Format : AVI\nFormat/Info : Audio Video Interleave\nFile size : 698 MiB\nDuration : 2h 30mn\nOverall bit rate : 647 Kbps\nWriting application : VirtualDubMod 1.5.10.2 (build 2540/release)\nWriting library : VirtualDubMod build 2540/release\n\nVideo\nID : 0\nFormat : MPEG-4 Visual\nFormat profile : Advanced Simple@L5\nFormat settings, BVOP : Yes\nFormat settings, QPel : No\nFormat settings, GMC : No warppoints\nFormat settings, Matrix : Default (H.263)\nCodec ID : DIVX\nCodec ID/Info : Project Mayo\nCodec ID/Hint : DivX 4\nDuration : 2h 30mn\nBit rate : 529 Kbps\nWidth : 656 pixels\nHeight : 272 pixels\nDisplay aspect ratio : 2.40:1\nFrame rate : 23.976 fps\nResolution : 8 bits\nColorimetry : 4:2:0\nScan type : Progressive\nBits/(Pixel*Frame) : 0.124\nStream size : 570 MiB (82%)\nWriting library : XviD 1.2.1 (UTC 2008-12-04)\n\nAudio\nID : 1\nFormat : MPEG Audio\nFormat version : Version 1\nFormat profile : Layer 3\nFormat_Settings_Mode : Joint stereo\nFormat_Settings_ModeExtension : MS Stereo\nCodec ID : 55\nCodec ID/Hint : MP3\nDuration : 2h 30mn\nBit rate mode : Variable\nBit rate : 106 Kbps\nChannel(s) : 2 channels\nSampling rate : 44.1 KHz\nStream size : 114 MiB (16%)\nAlignment : Aligned on interleaves\nInterleave, duration : 26 ms (0.63 video frame)\nInterleave, preload duration : 180 ms\nWriting library : LAME3.90.\nEncoding settings : -m j -V 4 -q 2 -lowpass 16 --abr 106","torrent":{"xt":"urn:btih:bc9465557761b3f28d59fad3bab25d8a95dc44cd","amp;dn":"Pirates.Of.The.Caribbean.Dead.Mans.Chest.2006.DVDRip.XviD%5BENG%5D-N","amp;tr":["udp%3A%2F%2Ftracker.openbittorrent.com%3A80","udp%3A%2F%2Fopen.demonii.com%3A1337","udp%3A%2F%2Ftracker.coppersurfer.tk%3A6969","udp%3A%2F%2Fexodus.desync.com%3A6969"],"infoHash":"bc9465557761b3f28d59fad3bab25d8a95dc44cd","infoHashBuffer":{"type":"Buffer","data":[188,148,101,85,119,97,179,242,141,89,250,211,186,178,93,138,149,220,68,205]},"announce":[],"urlList":[]}}